<?xml version="1.0" encoding="UTF-8" standalone="no"?>
<svg
   xmlns:osb="http://www.openswatchbook.org/uri/2009/osb"
   xmlns:dc="http://purl.org/dc/elements/1.1/"
   xmlns:cc="http://creativecommons.org/ns#"
   xmlns:rdf="http://www.w3.org/1999/02/22-rdf-syntax-ns#"
   xmlns:svg="http://www.w3.org/2000/svg"
   xmlns="http://www.w3.org/2000/svg"
   id="svg2"
   version="1.1"
   height="600"
   width="600">
  <defs
     id="defs34">
    <linearGradient
       osb:paint="solid"
       id="linearGradient4323">
      <stop
         id="stop4325"
         offset="0"
         style="stop-color:#000000;stop-opacity:1;" />
    </linearGradient>
    <clipPath
       id="clipPath4375"
       clipPathUnits="userSpaceOnUse">
      <rect
         transform="matrix(0.99943498,0.03361128,-0.01230072,0.99992434,0,0)"
         style="opacity:1;fill:#f5f5f5;fill-opacity:1;fill-rule:nonzero;stroke:#000000;stroke-width:0.50005674;stroke-miterlimit:4;stroke-dasharray:none;stroke-dashoffset:0;stroke-opacity:1"
         id="rect4377"
         width="184.22487"
         height="307.59442"
         x="9.9817715"
         y="288.19388" />
    </clipPath>
  </defs>
  <title
     id="title4">Black Humming bird</title>
  <metadata
     id="metadata7">image/svg+xml<rdf:RDF>
  <cc:Work
     rdf:about="">
    <dc:format>image/svg+xml</dc:format>
    <dc:type
       rdf:resource="http://purl.org/dc/dcmitype/StillImage" />
    <dc:title>Black Humming bird</dc:title>
  </cc:Work>
</rdf:RDF>
</metadata>
  <g
     id="g4385">
    <rect
       style="opacity:1;fill:#f5f5f5;fill-opacity:1;fill-rule:nonzero;stroke:#000000;stroke-width:0.49999997;stroke-miterlimit:4;stroke-dasharray:none;stroke-dashoffset:0;stroke-opacity:1"
       id="rect4240"
       width="599.5"
       height="599.5"
       x="0.25"
       y="0.25" />
    <g
       id="g3428"
       transform="matrix(0.76799681,-0.1276716,0.1276716,0.76799681,7.8940511,1.4233924)"
       style="fill:#1565c0;fill-opacity:1">
      <path
         style="fill:#1565c0;fill-opacity:1"
         id="path3245-7-2"
         d="m 416.42713,329.47289 c 0,0 8.95669,5.79079 16.59204,-0.69674 33.66869,-46.87296 72.84958,-62.39312 92.97906,-107.48766 3.37063,36.34355 -58.95566,75.56902 -58.95566,75.56902 0,0 37.52264,-19.36764 58.12619,-51.2799 -0.40284,25.24827 -57.18726,53.53052 -57.18726,53.53052 0,0 23.61878,-8.92035 55.20919,-36.13632 -1.90816,16.83219 -55.25402,38.94189 -55.25402,38.94189 0,0 34.48829,-14.60017 53.45794,-27.98069 -5.42846,20.00663 -52.84342,31.71912 -52.84342,31.71912 0,0 19.49716,-4.79186 43.67904,-8.44239 -10.47319,12.67159 -44.15246,12.36365 -44.15246,12.36365 0,0 23.78036,2.5496 38.12859,0.42792 0.99036,15.52083 -38.74972,8.78883 -38.74972,8.78883 0,0 22.56121,3.88919 35.23667,8.3712 -2.06246,13.7116 -37.9176,-0.47158 -37.9176,-0.47158 0,0 18.99408,7.91759 30.08312,16.08733 -5.83529,2.61631 -30.97324,-13.10531 -30.97324,-13.10531 0,0 22.37062,14.2024 26.18828,22.49274 -4.84231,3.10775 -27.56502,-18.71069 -27.56502,-18.71069 0,0 19.36593,17.62644 22.77084,27.05107 -5.94804,-1.90351 -25.21835,-20.59819 -25.21835,-20.59819 0,0 18.69075,17.06827 20.18352,25.84367 -2.15872,3.24633 -23.48493,-20.26139 -23.48493,-20.26139 0,0 17.10434,17.39935 18.57799,24.0819 -4.79812,0.30285 -23.33788,-19.59285 -23.33788,-19.59285 0,0 12.16513,10.04185 19.14837,24.66125 -6.37073,-1.81498 -23.14076,-21.2064 -23.14076,-21.2064 0,0 14.53416,14.26592 18.86811,24.89479 -8.97186,-0.57358 -24.80433,-31.84039 -50.44862,-48.85479 z" />
      <path
         style="fill:#1565c0;fill-opacity:1"
         id="path2816-6-8-5-0-0"
         d="m 457.15409,419.07057 0,0 z m 0,0 c 23.61047,-27.96658 -38.43726,-78.16867 -6.93126,-81.23762 5.19965,-0.20631 10.49905,-1.36146 15.698,-3.18019 30.08606,39.98106 40.60144,105.43221 39.78248,233.08759 -8.03813,-113.86549 -19.89329,-128.36299 -32.09204,-137.83306 -5.82844,-3.68856 -11.29426,-7.29304 -16.45718,-10.82121 0.005,-0.003 -0.005,-0.0123 0,-0.0155 z" />
      <path
         style="fill:#1565c0;fill-opacity:1"
         id="path2816-6-6-6"
         d="m 336.58939,297.61195 3.34954,7.26577 -3.08844,5.02349 c -29.85235,17.76948 -64.36435,53.46312 -64.36435,53.46312 0,0 23.36361,-29.1875 64.10325,-65.75238 z" />
      <path
         style="fill:#1565c0;fill-opacity:1"
         id="path3245-6-4"
         d="m 639.38238,226.28374 c -7.4209,36.22357 -120.79088,61.85101 -120.79088,61.85101 0,0 66.75996,-11.27749 110.91623,-38.27339 -9.53648,24.60416 -110.22054,40.66517 -110.22054,40.66517 0,0 40.88081,-3.8937 100.92943,-24.05562 -7.65571,13.70521 -76.2719,23.49679 -96.33962,26.08938 13.11764,-1.62765 58.67717,-7.40239 88.3205,-12.96222 -9.82431,11.53279 -56.56826,15.71199 -90.23704,17.22287 26.0144,-0.54469 58.45697,-1.04318 69.72898,-0.46321 -19.79515,11.6047 -75.92571,4.42489 -75.92571,4.42489 0,0 37.08347,7.35367 60.75025,8.20822 -3.88556,15.37774 -65.00053,0.67239 -65.00053,0.67239 0,0 34.67945,8.41478 53.34788,15.38412 -6.48722,10.36838 -39.22823,-1.95932 -52.18866,-7.35556 9.45621,4.20097 28.6797,13.40045 34.16948,21.02032 -10.24409,1.36721 -43.98249,-18.97179 -43.98249,-18.97179 0,0 29.86146,18.29494 33.04073,27.18002 -7.25778,1.68478 -27.65575,-14.81829 -34.77166,-20.81118 6.32806,5.45783 22.46578,20.01823 24.17015,27.98711 -6.62314,-2.30642 -21.89611,-15.37645 -29.11543,-21.76777 6.72992,6.25274 19.75005,19.2618 19.22482,25.86482 -4.56003,0.39522 -18.97216,-13.2426 -26.17955,-20.37813 6.17481,6.37014 16.99984,18.22568 16.99984,23.1138 -4.36303,-0.38367 -13.9877,-8.78053 -21.5897,-16.07194 4.92809,5.61564 10.29781,12.81918 13.10506,20.16836 -5.59259,-1.80348 -14.75304,-10.23302 -21.38812,-16.90918 5.51699,6.60814 12.18784,15.32707 12.08507,18.76328 0,0 -9.11536,-3.74995 -20.39931,-17.38777 4.28811,5.90501 9.75068,14.2165 10.4311,19.07701 0,0 -28.88863,-18.95382 -34.57072,-45.50962 16.65169,-2.09982 22.39482,7.02071 24.33991,12.66329 32.802,-12.95776 59.95179,-52.20696 24.77293,-42.01115 49.60095,-20.8734 101.20666,-37.54328 146.3676,-67.42753 z" />
      <path
         style="fill:#1565c0;fill-opacity:1"
         id="path3245-6-9-3"
         d="m 382.26128,267.7271 c 14.77747,0.0783 32.00251,9.14618 50.02927,36.89787 5.37442,3.43237 10.40599,7.08098 15.1039,11.01893 15.1012,-8.12098 30.67587,-15.24943 46.46347,-21.93263 35.86238,-10.49287 6.81643,30.82796 -26.78106,42.83363 -5.04804,1.80347 -10.19362,2.94928 -15.24234,3.15458 -30.59148,3.04424 29.65521,52.84149 6.73007,80.58352 C 350.7922,345.04634 386.9381,306.79861 336.3813,310.2618 l 3.08844,-5.00873 -3.34954,-7.26577 c 0,0 18.88594,-30.40517 46.14108,-30.2602 z m -8.4503,13.60513 c -0.70551,-0.0212 -1.4361,0.0603 -2.15148,0.25406 -3.81504,1.03291 -6.03972,4.88423 -4.97817,8.59635 1.0616,3.71275 5.00385,5.89214 8.81958,4.85923 3.81504,-1.03292 6.05485,-4.88425 4.9933,-8.59637 -0.86179,-3.01667 -3.62779,-5.02349 -6.68323,-5.11327 z" />
      <path
         style="fill:#1565c0;fill-opacity:1"
         id="path3292-3"
         d="m 375.10132,278.4169 c 4.1902,0.12319 7.99007,2.86011 9.17295,6.99694 1.45523,5.09088 -1.60484,10.36455 -6.83751,11.78114 -5.23199,1.41592 -10.65188,-1.56222 -12.10775,-6.65306 -1.45521,-5.0915 1.60554,-10.36518 6.83753,-11.78114 0.9811,-0.26557 1.96816,-0.3727 2.93478,-0.34388 z m -1.30619,2.91533 c -0.70484,-0.0212 -1.42025,0.0603 -2.13563,0.25406 -3.81504,1.03291 -6.05489,4.88423 -4.99334,8.59635 1.06091,3.71275 5.01902,5.87675 8.83475,4.84446 3.81504,-1.03291 6.05485,-4.86948 4.99329,-8.5816 -0.86178,-3.01667 -3.6436,-5.02349 -6.69907,-5.11327 z" />
      <path
         style="fill:#1565c0;fill-opacity:1"
         id="path3296-6"
         d="m 439.25551,325.08052 c 10e-6,1.79129 -1.49266,3.2433 -3.3336,3.2433 -1.84096,0 -3.33321,-1.45201 -3.3332,-3.24328 -10e-6,-1.7913 1.49226,-3.24365 3.33322,-3.24365 1.84092,0 3.33359,1.45236 3.33358,3.24363 z" />
      <path
         style="fill:#1565c0;fill-opacity:1"
         id="path3245-6-9-2-1-9"
         d="m 382.26128,267.7271 c 14.77747,0.0783 32.00251,9.14618 50.02927,36.89787 -32.83326,-41.69937 -61.13615,-34.7762 -75.71977,-28.01726 7.15335,-5.02478 15.87533,-8.93254 25.6905,-8.88061 z" />
      <path
         style="fill:#1565c0;fill-opacity:1"
         id="path4336-0"
         d="m 430.09292,398.61919 c -43.87221,-36.65537 -52.41812,-62.32897 -62.18254,-76.27732 46.4312,-2.34108 38.57695,41.8681 62.18254,76.27732 z" />
      <rect
         ry="3.745425"
         rx="3.745579"
         y="278.13443"
         x="359.21005"
         height="24.022408"
         width="33.406158"
         id="rect3422"
         style="opacity:0.2;fill:#1565c0;fill-opacity:1;fill-rule:nonzero;stroke:none;stroke-width:0;stroke-miterlimit:4;stroke-dasharray:none;stroke-dashoffset:0;stroke-opacity:1" />
    </g>
    <path
       id="path4292"
       d="m 198.05115,494.05241 c -54.24965,0 -98.249133,-15.7103 -98.249133,-35.04869 0,-10.57623 0,-22.14503 0,-35.04871 0,-3.04621 1.423073,-5.93856 3.469943,-8.76216 10.954,15.0942 49.04472,26.2865 94.77919,26.2865 45.73445,0 83.8252,-11.1923 94.7792,-26.2865 2.04687,2.8236 3.46994,5.71595 3.46994,8.76216 0,10.14825 0,20.91286 0,35.04871 0,19.33839 -44.00742,35.04869 -98.24914,35.04869 z m 0,-70.0974 c -54.24965,0 -98.249133,-15.71031 -98.249133,-35.0487 0,-10.5847 0,-22.13653 0,-35.0487 0,-1.85675 0.655513,-3.66231 1.535153,-5.45061 l 0,0 c 0.49584,-1.12101 1.15135,-2.22477 1.93479,-3.31155 10.954,15.08572 49.04472,26.28652 94.77919,26.28652 45.73445,0 83.8252,-11.2008 94.7792,-26.28652 0.78345,1.08678 1.43919,2.19054 1.93479,3.31155 l 0,0 c 0.87964,1.7883 1.53515,3.59386 1.53515,5.45061 0,10.14826 0,20.90438 0,35.0487 0,19.33839 -44.00742,35.0487 -98.24914,35.0487 z m 0,-70.0974 c -54.24965,0 -98.249133,-15.70182 -98.249133,-35.04868 0,-5.53634 0,-11.38918 0,-17.52435 0,-5.57055 0,-11.35496 0,-17.52435 0,-19.34689 43.999483,-35.04869 98.249133,-35.04869 54.24172,0 98.24914,15.7018 98.24914,35.04869 0,5.46787 0,11.26924 0,17.52435 0,5.36518 0,11.02117 0,17.52435 0,19.34686 -44.00742,35.04868 -98.24914,35.04868 z m 0,-87.62173 c -36.1718,0 -65.49943,7.82954 -65.49943,17.52435 0,9.6948 29.32763,17.52435 65.49943,17.52435 36.17181,0 65.49942,-7.82955 65.49942,-17.52435 0,-9.69481 -29.32761,-17.52435 -65.49942,-17.52435 z"
       style="fill:#1565c0;fill-opacity:1" />
    <path
       style="opacity:0.2;fill:#000000;fill-opacity:1;fill-rule:nonzero;stroke:none;stroke-width:1.10000002;stroke-miterlimit:4;stroke-dasharray:none;stroke-dashoffset:0;stroke-opacity:1"
       id="path4359"
       d="M 357.3333,607.50699 2.4715584,596.18485 189.70769,294.52663 Z"
       transform="matrix(3.2546685,-0.06552311,0.0400378,1.9483365,-32.232434,-561.43846)"
       clip-path="url(#clipPath4375)" />
  </g>
</svg>
